#!OML:ASF F:\VICON\USERDATA\INSTALL\rory3\rory3.ASF
:FULLY-SPECIFIED
:DEGREES
290
root -8.26756 15.2861 7.38846 11.7543 29.0099 4.8042
lowerback 28.8692 2.45454 1.29989
upperback 5.96257 3.99774 2.9076
thorax -9.3455 1.93352 1.0738
lowerneck -14.267 -8.51965 -8.47846
upperneck 12.2213 -10.3945 4.23898
head 6.72504 -5.06884 1.63525
rclavicle -7.71285e-014 5.725e-014
rhumerus -13.4184 -29.8665 -53.0133
rradius 65.504
rwrist 30.8168
rhand -34.3339 -8.83814
rfingers 7.12502
rthumb -7.50182 -38.6851
lclavicle -7.71285e-014 5.725e-014
lhumerus -47.1589 29.452 50.5077
lradius 62.3909
lwrist -4.28361
lhand -31.447 41.1553
lfingers 7.12502
lthumb -4.71475 71.0828
rfemur -64.8019 -16.8906 10.6984
rtibia 64.5751
rfoot -0.338363 2.34168
rtoes 7.74141
lfemur -34.4582 -17.7022 -10.0792
ltibia 73.6992
lfoot -21.5115 -19.1586
ltoes -28.5743
291
root -8.31693 15.2458 7.49319 11.8744 29.0952 4.91194
lowerback 28.7177 2.61565 1.05981
upperback 6.26393 4.12588 2.92636
thorax -8.94831 2.00643 1.1979
lowerneck -14.4698 -8.68824 -8.17036
upperneck 11.9037 -10.6735 4.31209
head 6.66051 -5.18121 1.57667
rclavicle -8.50798e-014 4.6118e-014
rhumerus -12.7452 -30.4214 -53.3344
rradius 65.3987
rwrist 30.8185
rhand -34.2437 -8.78748
rfingers 7.12502
rthumb -7.41478 -38.6375
lclavicle -8.50798e-014 4.6118e-014
lhumerus -47.1429 29.5972 50.6495
lradius 62.4118
lwrist -4.18332
lhand -31.2359 41.2209
lfingers 7.12502
lthumb -4.51096 71.1529
rfemur -65.3122 -16.8237 10.8453
rtibia 65.7238
rfoot -0.604204 2.47995
rtoes 8.17974
lfemur -34.3118 -17.8347 -9.89176
ltibia 74.183
lfoot -21.8318 -18.9104
ltoes -28.2904
292
root -8.32927 15.1365 7.52364 13.2317 28.0555 4.79174
lowerback 27.7253 2.91969 1.34104
upperback 6.03571 4.52618 2.61485
thorax -8.67424 2.18361 0.585507
lowerneck -14.5986 -8.9005 -8.12002
upperneck 11.699 -10.9726 4.42372
head 6.63782 -5.3128 1.56729
rclavicle -4.29375e-014 4.45278e-014
rhumerus -12.3743 -30.5859 -53.5804
rradius 65.383
rwrist 30.67
rhand -34.319 -8.85214
rfingers 7.12502
rthumb -7.48746 -38.6996
lclavicle -4.29375e-014 4.45278e-014
lhumerus -47.4299 29.6913 50.6662
lradius 62.4762
lwrist -4.15922
lhand -31.0706 41.445
lfingers 7.12502
lthumb -4.35128 71.3803
rfemur -68.1759 -16.4322 11.5303
rtibia 66.7696
rfoot 0.148847 2.97919
rtoes 9.99647
lfemur -36.2223 -16.8651 -9.63604
ltibia 75.28
lfoot -22.3061 -17.904
ltoes -29.8195
293
root -8.35794 15.0697 7.59556 13.8554 27.8874 4.82997
lowerback 27.4475 2.94015 1.45892
upperback 5.93126 4.56006 2.45706
thorax -8.63061 2.19463 0.341681
lowerneck -14.4623 -9.04582 -7.98774
upperneck 11.3947 -11.2235 4.58696
head 6.53466 -5.41902 1.58043
rclavicle -1.08139e-013 1.27222e-014
rhumerus -12.0917 -30.5379 -53.755
rradius 65.3961
rwrist 30.4889
rhand -34.116 -9.19321
rfingers 7.12502
rthumb -7.29158 -39.0476
lclavicle -1.08139e-013 1.27222e-014
lhumerus -47.8479 29.3774 50.6973
lradius 62.7516
lwrist -3.82503
lhand -31.013 42.6031
lfingers 7.12502
lthumb -4.2957 72.5396
rfemur -69.5526 -16.495 11.9244
rtibia 67.8157
rfoot 0.00711947 3.48402
rtoes 7.9344
lfemur -36.9964 -16.7236 -9.4496
ltibia 75.9948
lfoot -22.7969 -17.2326
ltoes -30.015
294
root -8.3942 15.0239 7.68883 13.9838 27.9494 4.91842
lowerback 27.5379 3.00483 1.38764
upperback 6.0248 4.62353 2.4566
thorax -8.5761 2.22754 0.358717
lowerneck -14.0734 -9.18689 -7.92758
upperneck 10.7879 -11.4901 4.94526
head 6.31063 -5.52849 1.68041
rclavicle 8.5875e-014 1.74931e-014
rhumerus -11.6406 -30.8987 -53.8407
rradius 65.2013
rwrist 30.6089
rhand -33.6193 -8.53731
rfingers 7.12502
rthumb -6.81209 -38.4077
lclavicle 8.5875e-014 1.74931e-014
lhumerus -48.0582 29.2942 50.9193
lradius 62.8226
lwrist -3.75705
lhand -30.9325 43.2671
lfingers 7.12502
lthumb -4.21795 73.2051
rfemur -70.0989 -16.5744 12.1423
rtibia 68.8461
rfoot -0.416516 3.73381
rtoes 6.83814
lfemur -36.9733 -16.7839 -9.39745
ltibia 76.4911
lfoot -23.1279 -16.4715
ltoes -29.8469
295
root -8.43035 14.9957 7.77653 14.0079 28.0004 4.84163
lowerback 27.823 3.00586 1.53499
upperback 6.02505 4.67121 2.43846
thorax -8.70478 2.24382 0.224907
lowerneck -13.932 -9.25684 -7.80512
upperneck 10.5138 -11.6233 5.03786
head 6.20654 -5.58587 1.68714
rclavicle 8.42847e-014 -2.54444e-014
rhumerus -11.2028 -31.0644 -53.8449
rradius 64.7182
rwrist 31.1392
rhand -33.477 -7.50163
rfingers 7.12502
rthumb -6.67467 -37.3764
lclavicle 8.42847e-014 -2.54444e-014
lhumerus -48.4697 29.5328 50.8494
lradius 62.6881
lwrist -4.07761
lhand -31.0146 42.9141
lfingers 7.12502
lthumb -4.29722 72.8505
rfemur -70.5054 -16.5665 12.5034
rtibia 69.6986
rfoot -0.725252 3.78392
rtoes 7.30946
lfemur -36.8275 -16.9267 -9.20215
ltibia 76.652
lfoot -23.2523 -15.6805
ltoes -30.318
296
root -8.47277 14.9669 7.86522 14.1362 28.1549 4.88319
lowerback 27.8957 2.95961 1.45261
upperback 6.11957 4.59056 2.4417
thorax -8.64067 2.20991 0.302332
lowerneck -14.1738 -9.28726 -7.52992
upperneck 10.4937 -11.657 4.73931
head 6.20645 -5.61001 1.53992
rclavicle -5.24792e-014 -3.49861e-014
rhumerus -10.5722 -31.2082 -54.126
rradius 64.1931
rwrist 32.0229
rhand -33.8013 -6.65506
rfingers 7.12502
rthumb -6.98776 -36.5197
lclavicle -5.24792e-014 -3.49861e-014
lhumerus -48.8263 29.8665 50.7656
lradius 62.5189
lwrist -4.37855
lhand -31.0502 42.4955
lfingers 7.12502
lthumb -4.33164 72.4312
rfemur -70.964 -16.6239 12.8076
rtibia 70.5336
rfoot -0.974128 3.64708
rtoes 8.54325
lfemur -36.7274 -17.3271 -8.95955
ltibia 76.6646
lfoot -23.3493 -15.2129
ltoes -30.3578
297
root -8.52189 14.9895 7.95212 14.3996 28.2817 5.18758
lowerback 27.9528 3.0176 1.13792
upperback 6.30539 4.58034 2.48532
thorax -8.4874 2.21618 0.536252
lowerneck -14.5074 -9.42344 -7.60909
upperneck 10.3181 -11.8147 4.87808
head 6.22802 -5.67449 1.56579
rclavicle 3.49861e-014 3.18055e-014
rhumerus -10.0006 -31.3045 -54.2686
rradius 64.2792
rwrist 31.7778
rhand -33.7109 -7.393
rfingers 7.12502
rthumb -6.90049 -37.2605
lclavicle 3.49861e-014 3.18055e-014
lhumerus -48.8635 30.2399 51.0975
lradius 62.3882
lwrist -4.27943
lhand -31.0682 42.5343
lfingers 7.12502
lthumb -4.34896 72.4697
rfemur -71.1433 -16.6723 12.9003
rtibia 71.1232
rfoot -1.38191 3.42112
rtoes 9.03907
lfemur -36.3262 -17.7733 -8.94471
ltibia 76.2863
lfoot -23.4211 -14.8223
ltoes -30.0836
298
root -8.56646 14.9534 8.04103 14.6006 28.2329 5.28591
lowerback 28.076 3.18343 0.934369
upperback 6.42018 4.74601 2.59054
thorax -8.44633 2.29972 0.70978
lowerneck -14.4286 -9.67325 -7.84771
upperneck 9.8155 -12.1381 5.20934
head 6.1105 -5.82122 1.67994
rclavicle -4.92986e-014 4.92986e-014
rhumerus -9.91509 -30.9472 -54.2024
rradius 65.3279
rwrist 29.7684
rhand -33.7701 -10.4422
rfingers 7.12502
rthumb -6.95761 -40.3078
lclavicle -4.92986e-014 4.92986e-014
lhumerus -48.9513 30.3984 51.5792
lradius 62.3505
lwrist -4.11282
lhand -31.1339 42.9363
lfingers 7.12502
lthumb -4.41244 72.8703
rfemur -71.6815 -16.5627 13.1402
rtibia 71.8947
rfoot -1.77055 3.31597
rtoes 8.9138
lfemur -36.0326 -17.9512 -8.70006
ltibia 76.2101
lfoot -23.7219 -14.4891
ltoes -30.7382
299
root -8.61465 14.928 8.13649 14.6684 27.907 5.0633
lowerback 28.1311 3.4072 0.676381
upperback 6.43992 4.9598 2.62317
thorax -8.47879 2.40354 0.817275
lowerneck -13.9659 -9.72369 -7.53622
upperneck 9.16733 -12.2925 5.32811
head 5.82717 -5.89201 1.68819
rclavicle -4.29375e-014 1.27222e-014
rhumerus -10.3127 -31.3039 -54.3878
rradius 65.5961
rwrist 30.5829
rhand -33.5412 -8.87188
rfingers 7.12502
rthumb -6.73671 -38.7447
lclavicle -4.29375e-014 1.27222e-014
lhumerus -49.3076 30.4671 51.5436
lradius 62.2489
lwrist -4.05885
lhand -31.2306 42.7787
lfingers 7.12502
lthumb -4.50582 72.7107
rfemur -72.2273 -16.0076 13.6308
rtibia 72.7233
rfoot -2.2791 3.13477
rtoes 8.20976
lfemur -35.5877 -17.8002 -8.23621
ltibia 75.7674
lfoot -24.2968 -14.1569
ltoes -32.2174
300
root -8.64182 14.8761 8.19691 15.262 27.1538 4.78682
lowerback 27.8587 3.67393 0.643426
upperback 6.28767 5.26463 2.47263
thorax -8.50909 2.54217 0.57354
lowerneck -13.8985 -9.78392 -7.30617
upperneck 8.87044 -12.4288 5.46247
head 5.7254 -5.94567 1.69026
rclavicle 5.40694e-014 -3.97569e-014
rhumerus -10.3868 -31.2638 -54.6855
rradius 66.0812
rwrist 30.2477
rhand -33.3925 -9.33666
rfingers 7.12502
rthumb -6.59311 -39.214
lclavicle 5.40694e-014 -3.97569e-014
lhumerus -49.6334 30.6113 51.4878
lradius 62.1847
lwrist -3.93049
lhand -31.2164 42.8119
lfingers 7.12502
lthumb -4.49207 72.7443
rfemur -73.6771 -15.3624 14.2772
rtibia 73.4844
rfoot -2.48352 3.20123
rtoes 7.22047
lfemur -36.1606 -17.234 -7.79843
ltibia 75.7854
lfoot -24.7988 -13.9616
ltoes -33.6412
